<svg width="28" height="21" fill="none" xmlns="http://www.w3.org/2000/svg"><rect y=".635" width="28" height="20" rx="2" fill="#fff"/><mask id="a" maskUnits="userSpaceOnUse" x="0" y="0" width="28" height="21"><rect y=".635" width="28" height="20" rx="2" fill="#fff"/></mask><g mask="url(#a)"><path fill="#0A17A7" d="M0 .635h28v20H0z"/><path fill-rule="evenodd" clip-rule="evenodd" d="M-1.282-1.281l11.949 8.06V-.698h6.666v7.477l11.95-8.06 1.49 2.21-9.447 6.373H28v6.667h-6.674l9.448 6.372-1.492 2.21-11.949-8.06v7.477h-6.666v-7.476l-11.95 8.06-1.49-2.211 9.447-6.373H0V7.303h6.674L-2.774.93l1.492-2.211z" fill="#fff"/><path d="M18.668 6.967l12.665-8.332m-11.32 15.697l11.353 7.653M8.006 6.945L-3.837-1.036M9.29 14.24l-13.127 8.705" stroke="#DB1F35" stroke-width=".667" stroke-linecap="round"/><path fill-rule="evenodd" clip-rule="evenodd" d="M0 12.635h12v8h4v-8h12v-4H16v-8h-4v8H0v4z" fill="#E6273E"/></g></svg>