<svg viewBox="0 0 110 36" xmlns="http://www.w3.org/2000/svg" xmlns:xlink="http://www.w3.org/1999/xlink"><style>:root&gt;svg{display:none}:root&gt;svg:target{display:block}</style><svg fill="none" viewBox="0 0 28 20" id="css--Germany" xmlns="http://www.w3.org/2000/svg"><rect width="28" height="20" rx="2" fill="#fff"/><mask id="aa" maskUnits="userSpaceOnUse" x="0" y="0" width="28" height="20"><rect width="28" height="20" rx="2" fill="#fff"/></mask><g mask="url(#aa)"><path fill-rule="evenodd" clip-rule="evenodd" d="M0 6.667h28V0H0v6.667z" fill="#262626"/><g filter="url(#afilter0_d)"><path fill-rule="evenodd" clip-rule="evenodd" d="M0 13.333h28V6.666H0v6.667z" fill="#F01515"/></g><g filter="url(#afilter1_d)"><path fill-rule="evenodd" clip-rule="evenodd" d="M0 20h28v-6.666H0V20z" fill="#FFD521"/></g></g><defs><filter id="afilter0_d" x="0" y="6.667" width="28" height="6.667" filterUnits="userSpaceOnUse" color-interpolation-filters="sRGB"><feFlood flood-opacity="0" result="BackgroundImageFix"/><feColorMatrix in="SourceAlpha" values="0 0 0 0 0 0 0 0 0 0 0 0 0 0 0 0 0 0 127 0"/><feOffset/><feColorMatrix values="0 0 0 0 0 0 0 0 0 0 0 0 0 0 0 0 0 0 0.06 0"/><feBlend in2="BackgroundImageFix" result="effect1_dropShadow"/><feBlend in="SourceGraphic" in2="effect1_dropShadow" result="shape"/></filter><filter id="afilter1_d" x="0" y="13.334" width="28" height="6.667" filterUnits="userSpaceOnUse" color-interpolation-filters="sRGB"><feFlood flood-opacity="0" result="BackgroundImageFix"/><feColorMatrix in="SourceAlpha" values="0 0 0 0 0 0 0 0 0 0 0 0 0 0 0 0 0 0 127 0"/><feOffset/><feColorMatrix values="0 0 0 0 0 0 0 0 0 0 0 0 0 0 0 0 0 0 0.06 0"/><feBlend in2="BackgroundImageFix" result="effect1_dropShadow"/><feBlend in="SourceGraphic" in2="effect1_dropShadow" result="shape"/></filter></defs></svg><svg fill="none" viewBox="0 0 28 21" id="css--UK" xmlns="http://www.w3.org/2000/svg"><rect y=".635" width="28" height="20" rx="2" fill="#fff"/><mask id="ba" maskUnits="userSpaceOnUse" x="0" y="0" width="28" height="21"><rect y=".635" width="28" height="20" rx="2" fill="#fff"/></mask><g mask="url(#ba)"><path fill="#0A17A7" d="M0 .635h28v20H0z"/><path fill-rule="evenodd" clip-rule="evenodd" d="M-1.282-1.281l11.949 8.06V-.698h6.666v7.477l11.95-8.06 1.49 2.21-9.447 6.373H28v6.667h-6.674l9.448 6.372-1.492 2.21-11.949-8.06v7.477h-6.666v-7.476l-11.95 8.06-1.49-2.211 9.447-6.373H0V7.303h6.674L-2.774.93l1.492-2.211z" fill="#fff"/><path d="M18.668 6.967l12.665-8.332m-11.32 15.697l11.353 7.653M8.006 6.945L-3.837-1.036M9.29 14.24l-13.127 8.705" stroke="#DB1F35" stroke-width=".667" stroke-linecap="round"/><path fill-rule="evenodd" clip-rule="evenodd" d="M0 12.635h12v8h4v-8h12v-4H16v-8h-4v8H0v4z" fill="#E6273E"/></g></svg><svg fill="none" viewBox="0 0 16 22" id="css--arrow" xmlns="http://www.w3.org/2000/svg"><path d="M8 18.894V1M1 14.226l7 6.224 7-6.224" stroke="#fff" stroke-width="2" stroke-linecap="round" stroke-linejoin="round"/></svg><svg fill="none" viewBox="0 0 15 13" id="css--arrow-end" xmlns="http://www.w3.org/2000/svg"><path d="M7.395 12.858L.125.965h14.541l-7.27 11.893z" fill="#40403F"/></svg><svg fill="none" viewBox="0 0 15 13" id="css--arrow-end-group" xmlns="http://www.w3.org/2000/svg"><path d="M7.395 12.858L.125.965h14.541l-7.27 11.893z" fill="#3A3A33"/></svg><svg fill="none" viewBox="0 0 33 33" id="css--carboon" xmlns="http://www.w3.org/2000/svg"><mask id="fa" maskUnits="userSpaceOnUse" x="0" y=".041" width="33" height="33" fill="#000"><path fill="#fff" d="M0 .041h33v33H0z"/><path d="M29.968 14.48c-.165 0-.325.02-.48.058l-1.846-3.228c.332-.378.534-.878.534-1.427 0-1.173-.924-2.127-2.06-2.127-.927 0-1.713.635-1.971 1.506h-3.77c-.259-.871-1.044-1.506-1.971-1.506a2 2 0 00-.454.052l-1.834-3.206a2.16 2.16 0 00.54-1.434c0-1.173-.925-2.127-2.061-2.127-.926 0-1.71.633-1.97 1.501H8.853c-.26-.868-1.045-1.501-1.97-1.501-1.136 0-2.06.954-2.06 2.127 0 .558.209 1.066.55 1.446L3.54 7.819a1.993 1.993 0 00-.48-.059C1.925 7.76 1 8.714 1 9.887c0 1.174.924 2.128 2.06 2.128.166 0 .326-.02.48-.059l1.835 3.208c-.343.38-.552.889-.552 1.447 0 .557.208 1.065.549 1.444L3.54 21.258a1.994 1.994 0 00-.48-.06c-1.136 0-2.06.955-2.06 2.128 0 1.174.924 2.128 2.06 2.128.166 0 .326-.02.48-.059L5.373 28.6a2.16 2.16 0 00-.55 1.446c0 1.173.924 2.127 2.06 2.127.925 0 1.71-.633 1.97-1.501h3.772c.26.868 1.044 1.501 1.97 1.501 1.136 0 2.06-.954 2.06-2.127a2.15 2.15 0 00-.54-1.433l1.842-3.22a2 2 0 00.486.06c.926 0 1.71-.632 1.97-1.5h3.772c.26.868 1.045 1.5 1.97 1.5 1.136 0 2.06-.953 2.06-2.127 0-.56-.211-1.071-.556-1.452l1.83-3.198c.154.038.314.059.48.059 1.136 0 2.06-.955 2.06-2.128s-.925-2.128-2.06-2.128zm-3.813 6.719c-.925 0-1.71.633-1.97 1.502h-3.772c-.26-.87-1.044-1.502-1.97-1.502-.167 0-.33.021-.486.06l-1.84-3.216c.334-.378.538-.881.538-1.432 0-.552-.205-1.056-.54-1.435l1.84-3.217c.144.033.294.052.449.052.924 0 1.707-.631 1.968-1.498h3.775c.26.867 1.045 1.498 1.968 1.498.167 0 .33-.022.486-.06l1.844 3.224a2.162 2.162 0 00-.537 1.432c0 .55.204 1.053.537 1.432l-1.837 3.212a2.008 2.008 0 00-.453-.052zm-11.56 6.72c-.926 0-1.71.632-1.97 1.501H8.852c-.26-.869-1.044-1.502-1.969-1.502-.158 0-.312.02-.46.055l-1.84-3.215c.334-.378.538-.88.538-1.432 0-.55-.204-1.053-.538-1.431l1.837-3.211c.15.035.304.055.463.055.927 0 1.713-.635 1.97-1.506h3.771c.258.87 1.044 1.506 1.97 1.506.166 0 .326-.02.48-.059l1.842 3.22a2.159 2.159 0 00-.533 1.426c0 .549.202 1.049.533 1.427l-1.844 3.223a2.001 2.001 0 00-.477-.058zM4.582 8.455l1.84-3.215c.147.036.302.055.46.055.925 0 1.71-.633 1.97-1.502h3.772c.26.869 1.044 1.502 1.97 1.502.164 0 .323-.02.477-.059l1.827 3.195c-.344.38-.556.89-.556 1.451 0 .562.213 1.074.56 1.455L15.07 14.54a2.009 2.009 0 00-.476-.057c-.923 0-1.707.63-1.968 1.497H8.851c-.26-.866-1.044-1.497-1.968-1.497-.158 0-.311.019-.459.054l-1.84-3.219a2.16 2.16 0 00.537-1.432c0-.55-.204-1.053-.538-1.431zm10.86 8.155c0 .483-.38.876-.848.876-.468 0-.849-.393-.849-.876s.38-.876.848-.876c.468 0 .849.393.849.876zm-9.408 0c0-.483.38-.876.848-.876.468 0 .848.393.848.876s-.38.876-.848.876c-.468 0-.848-.393-.848-.876zm20.08-7.604c.468 0 .849.393.849.876s-.381.876-.849.876c-.467 0-.848-.393-.848-.876s.38-.876.848-.876zm-6.863.876c0 .483-.38.876-.848.876-.468 0-.849-.393-.849-.876s.381-.876.849-.876c.468 0 .848.393.848.876zm-4.657-7.591c.467 0 .848.393.848.876s-.38.876-.848.876c-.468 0-.849-.393-.849-.876s.38-.876.848-.876zm-7.712 0c.468 0 .848.393.848.876s-.38.876-.848.876c-.468 0-.848-.393-.848-.876s.38-.876.848-.876zm-4.67 7.595c0-.482.38-.876.848-.876.467 0 .848.394.848.877 0 .482-.38.876-.848.876-.469 0-.849-.393-.849-.877zm0 13.44c0-.484.38-.877.848-.877.467 0 .848.393.848.876s-.38.876-.848.876c-.469 0-.849-.393-.849-.876zm4.67 7.595c-.468 0-.848-.393-.848-.876s.38-.876.848-.876c.468 0 .848.393.848.876s-.38.876-.848.876zm7.712 0c-.468 0-.849-.393-.849-.876s.38-.876.848-.876c.468 0 .849.393.849.876s-.38.876-.848.876zm3.848-6.72c-.468 0-.848-.393-.848-.876s.38-.876.848-.876c.468 0 .849.393.849.876s-.38.876-.849.876zm7.712 0c-.468 0-.849-.393-.849-.876s.381-.876.849-.876c.468 0 .848.393.848.876s-.38.876-.848.876zm3.813-6.719c-.468 0-.848-.393-.848-.876s.38-.876.848-.876c.468 0 .849.393.849.876s-.38.876-.849.876z"/></mask><path d="M29.968 14.48c-.165 0-.325.02-.48.058l-1.846-3.228c.332-.378.534-.878.534-1.427 0-1.173-.924-2.127-2.06-2.127-.927 0-1.713.635-1.971 1.506h-3.77c-.259-.871-1.044-1.506-1.971-1.506a2 2 0 00-.454.052l-1.834-3.206a2.16 2.16 0 00.54-1.434c0-1.173-.925-2.127-2.061-2.127-.926 0-1.71.633-1.97 1.501H8.853c-.26-.868-1.045-1.501-1.97-1.501-1.136 0-2.06.954-2.06 2.127 0 .558.209 1.066.55 1.446L3.54 7.819a1.993 1.993 0 00-.48-.059C1.925 7.76 1 8.714 1 9.887c0 1.174.924 2.128 2.06 2.128.166 0 .326-.02.48-.059l1.835 3.208c-.343.38-.552.889-.552 1.447 0 .557.208 1.065.549 1.444L3.54 21.258a1.994 1.994 0 00-.48-.06c-1.136 0-2.06.955-2.06 2.128 0 1.174.924 2.128 2.06 2.128.166 0 .326-.02.48-.059L5.373 28.6a2.16 2.16 0 00-.55 1.446c0 1.173.924 2.127 2.06 2.127.925 0 1.71-.633 1.97-1.501h3.772c.26.868 1.044 1.501 1.97 1.501 1.136 0 2.06-.954 2.06-2.127a2.15 2.15 0 00-.54-1.433l1.842-3.22a2 2 0 00.486.06c.926 0 1.71-.632 1.97-1.5h3.772c.26.868 1.045 1.5 1.97 1.5 1.136 0 2.06-.953 2.06-2.127 0-.56-.211-1.071-.556-1.452l1.83-3.198c.154.038.314.059.48.059 1.136 0 2.06-.955 2.06-2.128s-.925-2.128-2.06-2.128zm-3.813 6.719c-.925 0-1.71.633-1.97 1.502h-3.772c-.26-.87-1.044-1.502-1.97-1.502-.167 0-.33.021-.486.06l-1.84-3.216c.334-.378.538-.881.538-1.432 0-.552-.205-1.056-.54-1.435l1.84-3.217c.144.033.294.052.449.052.924 0 1.707-.631 1.968-1.498h3.775c.26.867 1.045 1.498 1.968 1.498.167 0 .33-.022.486-.06l1.844 3.224a2.162 2.162 0 00-.537 1.432c0 .55.204 1.053.537 1.432l-1.837 3.212a2.008 2.008 0 00-.453-.052zm-11.56 6.72c-.926 0-1.71.632-1.97 1.501H8.852c-.26-.869-1.044-1.502-1.969-1.502-.158 0-.312.02-.46.055l-1.84-3.215c.334-.378.538-.88.538-1.432 0-.55-.204-1.053-.538-1.431l1.837-3.211c.15.035.304.055.463.055.927 0 1.713-.635 1.97-1.506h3.771c.258.87 1.044 1.506 1.97 1.506.166 0 .326-.02.48-.059l1.842 3.22a2.159 2.159 0 00-.533 1.426c0 .549.202 1.049.533 1.427l-1.844 3.223a2.001 2.001 0 00-.477-.058zM4.582 8.455l1.84-3.215c.147.036.302.055.46.055.925 0 1.71-.633 1.97-1.502h3.772c.26.869 1.044 1.502 1.97 1.502.164 0 .323-.02.477-.059l1.827 3.195c-.344.38-.556.89-.556 1.451 0 .562.213 1.074.56 1.455L15.07 14.54a2.009 2.009 0 00-.476-.057c-.923 0-1.707.63-1.968 1.497H8.851c-.26-.866-1.044-1.497-1.968-1.497-.158 0-.311.019-.459.054l-1.84-3.219a2.16 2.16 0 00.537-1.432c0-.55-.204-1.053-.538-1.431zm10.86 8.155c0 .483-.38.876-.848.876-.468 0-.849-.393-.849-.876s.38-.876.848-.876c.468 0 .849.393.849.876zm-9.408 0c0-.483.38-.876.848-.876.468 0 .848.393.848.876s-.38.876-.848.876c-.468 0-.848-.393-.848-.876zm20.08-7.604c.468 0 .849.393.849.876s-.381.876-.849.876c-.467 0-.848-.393-.848-.876s.38-.876.848-.876zm-6.863.876c0 .483-.38.876-.848.876-.468 0-.849-.393-.849-.876s.381-.876.849-.876c.468 0 .848.393.848.876zm-4.657-7.591c.467 0 .848.393.848.876s-.38.876-.848.876c-.468 0-.849-.393-.849-.876s.38-.876.848-.876zm-7.712 0c.468 0 .848.393.848.876s-.38.876-.848.876c-.468 0-.848-.393-.848-.876s.38-.876.848-.876zm-4.67 7.595c0-.482.38-.876.848-.876.467 0 .848.394.848.877 0 .482-.38.876-.848.876-.469 0-.849-.393-.849-.877zm0 13.44c0-.484.38-.877.848-.877.467 0 .848.393.848.876s-.38.876-.848.876c-.469 0-.849-.393-.849-.876zm4.67 7.595c-.468 0-.848-.393-.848-.876s.38-.876.848-.876c.468 0 .848.393.848.876s-.38.876-.848.876zm7.712 0c-.468 0-.849-.393-.849-.876s.38-.876.848-.876c.468 0 .849.393.849.876s-.38.876-.848.876zm3.848-6.72c-.468 0-.848-.393-.848-.876s.38-.876.848-.876c.468 0 .849.393.849.876s-.38.876-.849.876zm7.712 0c-.468 0-.849-.393-.849-.876s.381-.876.849-.876c.468 0 .848.393.848.876s-.38.876-.848.876zm3.813-6.719c-.468 0-.848-.393-.848-.876s.38-.876.848-.876c.468 0 .849.393.849.876s-.38.876-.849.876z" fill="#fff"/><path d="M29.968 14.48c-.165 0-.325.02-.48.058l-1.846-3.228c.332-.378.534-.878.534-1.427 0-1.173-.924-2.127-2.06-2.127-.927 0-1.713.635-1.971 1.506h-3.77c-.259-.871-1.044-1.506-1.971-1.506a2 2 0 00-.454.052l-1.834-3.206a2.16 2.16 0 00.54-1.434c0-1.173-.925-2.127-2.061-2.127-.926 0-1.71.633-1.97 1.501H8.853c-.26-.868-1.045-1.501-1.97-1.501-1.136 0-2.06.954-2.06 2.127 0 .558.209 1.066.55 1.446L3.54 7.819a1.993 1.993 0 00-.48-.059C1.925 7.76 1 8.714 1 9.887c0 1.174.924 2.128 2.06 2.128.166 0 .326-.02.48-.059l1.835 3.208c-.343.38-.552.889-.552 1.447 0 .557.208 1.065.549 1.444L3.54 21.258a1.994 1.994 0 00-.48-.06c-1.136 0-2.06.955-2.06 2.128 0 1.174.924 2.128 2.06 2.128.166 0 .326-.02.48-.059L5.373 28.6a2.16 2.16 0 00-.55 1.446c0 1.173.924 2.127 2.06 2.127.925 0 1.71-.633 1.97-1.501h3.772c.26.868 1.044 1.501 1.97 1.501 1.136 0 2.06-.954 2.06-2.127a2.15 2.15 0 00-.54-1.433l1.842-3.22a2 2 0 00.486.06c.926 0 1.71-.632 1.97-1.5h3.772c.26.868 1.045 1.5 1.97 1.5 1.136 0 2.06-.953 2.06-2.127 0-.56-.211-1.071-.556-1.452l1.83-3.198c.154.038.314.059.48.059 1.136 0 2.06-.955 2.06-2.128s-.925-2.128-2.06-2.128zm-3.813 6.719c-.925 0-1.71.633-1.97 1.502h-3.772c-.26-.87-1.044-1.502-1.97-1.502-.167 0-.33.021-.486.06l-1.84-3.216c.334-.378.538-.881.538-1.432 0-.552-.205-1.056-.54-1.435l1.84-3.217c.144.033.294.052.449.052.924 0 1.707-.631 1.968-1.498h3.775c.26.867 1.045 1.498 1.968 1.498.167 0 .33-.022.486-.06l1.844 3.224a2.162 2.162 0 00-.537 1.432c0 .55.204 1.053.537 1.432l-1.837 3.212a2.008 2.008 0 00-.453-.052zm-11.56 6.72c-.926 0-1.71.632-1.97 1.501H8.852c-.26-.869-1.044-1.502-1.969-1.502-.158 0-.312.02-.46.055l-1.84-3.215c.334-.378.538-.88.538-1.432 0-.55-.204-1.053-.538-1.431l1.837-3.211c.15.035.304.055.463.055.927 0 1.713-.635 1.97-1.506h3.771c.258.87 1.044 1.506 1.97 1.506.166 0 .326-.02.48-.059l1.842 3.22a2.159 2.159 0 00-.533 1.426c0 .549.202 1.049.533 1.427l-1.844 3.223a2.001 2.001 0 00-.477-.058zM4.582 8.455l1.84-3.215c.147.036.302.055.46.055.925 0 1.71-.633 1.97-1.502h3.772c.26.869 1.044 1.502 1.97 1.502.164 0 .323-.02.477-.059l1.827 3.195c-.344.38-.556.89-.556 1.451 0 .562.213 1.074.56 1.455L15.07 14.54a2.009 2.009 0 00-.476-.057c-.923 0-1.707.63-1.968 1.497H8.851c-.26-.866-1.044-1.497-1.968-1.497-.158 0-.311.019-.459.054l-1.84-3.219a2.16 2.16 0 00.537-1.432c0-.55-.204-1.053-.538-1.431zm10.86 8.155c0 .483-.38.876-.848.876-.468 0-.849-.393-.849-.876s.38-.876.848-.876c.468 0 .849.393.849.876zm-9.408 0c0-.483.38-.876.848-.876.468 0 .848.393.848.876s-.38.876-.848.876c-.468 0-.848-.393-.848-.876zm20.08-7.604c.468 0 .849.393.849.876s-.381.876-.849.876c-.467 0-.848-.393-.848-.876s.38-.876.848-.876zm-6.863.876c0 .483-.38.876-.848.876-.468 0-.849-.393-.849-.876s.381-.876.849-.876c.468 0 .848.393.848.876zm-4.657-7.591c.467 0 .848.393.848.876s-.38.876-.848.876c-.468 0-.849-.393-.849-.876s.38-.876.848-.876zm-7.712 0c.468 0 .848.393.848.876s-.38.876-.848.876c-.468 0-.848-.393-.848-.876s.38-.876.848-.876zm-4.67 7.595c0-.482.38-.876.848-.876.467 0 .848.394.848.877 0 .482-.38.876-.848.876-.469 0-.849-.393-.849-.877zm0 13.44c0-.484.38-.877.848-.877.467 0 .848.393.848.876s-.38.876-.848.876c-.469 0-.849-.393-.849-.876zm4.67 7.595c-.468 0-.848-.393-.848-.876s.38-.876.848-.876c.468 0 .848.393.848.876s-.38.876-.848.876zm7.712 0c-.468 0-.849-.393-.849-.876s.38-.876.848-.876c.468 0 .849.393.849.876s-.38.876-.848.876zm3.848-6.72c-.468 0-.848-.393-.848-.876s.38-.876.848-.876c.468 0 .849.393.849.876s-.38.876-.849.876zm7.712 0c-.468 0-.849-.393-.849-.876s.381-.876.849-.876c.468 0 .848.393.848.876s-.38.876-.848.876zm3.813-6.719c-.468 0-.848-.393-.848-.876s.38-.876.848-.876c.468 0 .849.393.849.876s-.38.876-.849.876z" stroke="#fff" stroke-width=".6" mask="url(#fa)"/></svg><svg fill="none" viewBox="0 0 23 36" id="css--cost" xmlns="http://www.w3.org/2000/svg"><path d="M7.5 22.59v5H2l9.5 7 9-7h-5v-5" stroke="#fff" stroke-width="1.9" stroke-linecap="round" stroke-linejoin="round"/><path d="M10.952 13.979h1.096c.571 0 1.036.444 1.036.99s-.465.99-1.036.99h-1.115c-.552 0-1.001-.43-1.001-.957H8.016c0 1.41 1.102 2.578 2.526 2.76v1.303h1.916v-1.304C13.892 17.569 15 16.39 15 14.969c0-1.555-1.324-2.82-2.952-2.82h-1.096c-.571 0-1.036-.444-1.036-.99s.465-.99 1.036-.99h1.07c.573 0 1.038.444 1.038.99h1.916c0-1.413-1.095-2.588-2.518-2.79V7.063h-1.916v1.305C9.108 8.558 8 9.737 8 11.159c0 1.555 1.324 2.82 2.952 2.82z" fill="#fff"/><circle cx="11.5" cy="12.09" r="10.5" stroke="#fff" stroke-width="2"/></svg><svg fill="none" viewBox="0 0 37 24" id="css--fast" xmlns="http://www.w3.org/2000/svg"><path d="M7.563 20.309h2.916c.498 0 .88-.437.88-.947s-.382-.947-.88-.947H7.563c-.498 0-.88.437-.88.947s.382.947.88.947zm28.586-7.301l.002-.013v-.013c0-4.026-3-7.326-6.713-7.326h-5.37c-.42 0-.77.315-.858.741l-2.65 12.759s0 0 0 0a1 1 0 00.167.792.858.858 0 00.69.361h5.105c.498 0 .879-.437.879-.947s-.381-.948-.88-.948h-4.006L24.773 7.55h4.665c2.718 0 4.948 2.42 4.968 5.273l-.96 5.591h-1.09c-.499 0-.88.438-.88.948s.381.947.88.947h1.822c.434 0 .79-.335.864-.775h0l1.107-6.526z" fill="#fff" stroke="#fff" stroke-width=".3"/><path d="M25.643 19.362c0 2.269 1.691 4.137 3.796 4.137 2.105 0 3.796-1.868 3.796-4.137 0-2.27-1.691-4.137-3.796-4.137-2.105 0-3.796 1.867-3.796 4.137zm1.758 0c0-1.25.927-2.243 2.038-2.243 1.11 0 2.037.994 2.037 2.243 0 1.249-.926 2.242-2.037 2.242-1.111 0-2.038-.993-2.038-2.242zm-17.801 0c0 2.269 1.692 4.137 3.797 4.137 2.104 0 3.795-1.868 3.795-4.137 0-2.27-1.69-4.137-3.795-4.137S9.6 17.091 9.6 19.361zm1.76 0c0-1.25.926-2.243 2.037-2.243 1.11 0 2.037.994 2.037 2.243 0 1.249-.926 2.242-2.037 2.242-1.111 0-2.038-.993-2.038-2.242zM4.647 5.956h5.833c.498 0 .88-.437.88-.947s-.382-.948-.88-.948H4.647c-.498 0-.88.438-.88.948s.382.947.88.947zm-1.46 4.784h7.292c.497 0 .879-.437.879-.947s-.382-.947-.88-.947h-7.29c-.498 0-.88.437-.88.947s.382.947.88.947zM1.73 15.525h8.749c.498 0 .88-.438.88-.947 0-.51-.382-.948-.88-.948h-8.75c-.497 0-.879.437-.879.947s.382.948.88.948z" fill="#fff" stroke="#fff" stroke-width=".3"/><path d="M21.416 20.31h-5.104c-.497 0-.879-.438-.879-.948s.382-.948.88-.948h4.4l3.25-15.648h-16.4c-.498 0-.88-.437-.88-.947s.382-.948.88-.948h17.5c.272 0 .526.136.69.362a1 1 0 01.168.792l-4.505 18.284zm0 0c.42 0 .77-.316.859-.742l3.646-17.543-4.505 18.284z" fill="#fff" stroke="#fff" stroke-width=".3"/></svg><svg fill="none" viewBox="0 0 27 31" id="css--fuel" xmlns="http://www.w3.org/2000/svg"><path d="M2.336 5.84h0l-.002-.002a.433.433 0 010-.632l2.713-2.713a.433.433 0 01.631 0L7.38 4.195 3.979 7.54l-1.643-1.7zm1.369 4.082l.008-.005.007-.007 4.393-4.306L9.868 3.88h0a1.04 1.04 0 01.738-.318h12.537c.942 0 1.658.716 1.658 1.658v21.705c0 .942-.716 1.659-1.658 1.659H5.061a1.626 1.626 0 01-1.658-1.659V10.647c0-.275.112-.582.302-.725zm19.438-7.866H10.606c-.699 0-1.34.254-1.793.707l-.377.376-1.702-1.702c-.778-.779-2.02-.787-2.746.002l-2.71 2.71c-.778.78-.786 2.022.003 2.747l1.7 1.7-.25.25c-.582.457-.833 1.167-.833 1.86v16.28A3.135 3.135 0 005.06 30.15h18.082a3.135 3.135 0 003.164-3.165V5.22a3.135 3.135 0 00-3.164-3.164z" fill="#fff" stroke="#fff" stroke-width=".3"/><path d="M13.209 12.048c-.134.116-.951.897-1.745 2.014-.81 1.14-1.614 2.658-1.614 4.19 0 1.827 1.782 3.276 3.9 3.276 2.12 0 3.9-1.45 3.9-3.276 0-1.532-.803-3.05-1.613-4.19-.794-1.117-1.611-1.898-1.745-2.014-.134-.143-.352-.198-.541-.198-.19 0-.407.055-.542.198zm.542 8.138c-1.32 0-2.35-.895-2.35-1.934 0-.924.405-1.898.923-2.762a12.95 12.95 0 011.427-1.912c.399.446.955 1.126 1.426 1.912.518.864.924 1.838.924 2.762 0 1.039-1.031 1.934-2.35 1.934z" fill="#fff" stroke="#fff" stroke-width=".3"/><path d="M19 7.85H9c-1.215 0-2.15 1.262-2.15 2.721V23.43c0 1.46.935 2.721 2.15 2.721h10c1.216 0 2.15-1.262 2.15-2.721V10.57c0-1.46-.934-2.721-2.15-2.721zm.85 15.579c0 .661-.416 1.135-.85 1.135H9c-.434 0-.85-.474-.85-1.135V10.57c0-.661.416-1.135.85-1.135h10c.434 0 .85.474.85 1.135v12.86z" fill="#fff" stroke="#fff" stroke-width=".3"/></svg><svg fill="none" viewBox="0 0 110 20" id="css--logo" xmlns="http://www.w3.org/2000/svg"><path d="M26.244 18.578l-5.092.021-.04-9.336c0-1.204-.181-2.158-.524-2.843-.342-.685-1.046-1.037-2.113-1.037-1.892 0-2.817 1.224-2.817 3.651l.04 9.586-5.072.041-.06-9.564c0-2.449-.866-3.673-2.556-3.673-1.932 0-2.878 1.307-2.878 3.9l.04 9.338-5.091.041L0 1.129l4.77-.02v1.867h.06c.886-1.66 2.455-2.49 4.69-2.49 2.193-.02 3.823 1.017 4.93 3.112C15.718 1.503 17.53.445 19.844.424c1.871 0 3.36.58 4.488 1.743.302.332.583.664.805.975.221.311.402.685.543 1.12.141.436.242.768.302.996.08.228.12.643.161 1.224.04.602.06.975.06 1.12v1.35l.04 9.626zM45.967 2.996c1.75 1.764 2.636 3.984 2.656 6.66.02 2.677-.845 4.918-2.596 6.702-1.75 1.785-3.924 2.677-6.54 2.697-2.617.021-4.81-.87-6.562-2.634-1.75-1.764-2.636-3.984-2.656-6.66-.02-2.677.845-4.918 2.596-6.702 1.75-1.785 3.924-2.677 6.54-2.698 2.617 0 4.81.872 6.562 2.635zm-3.603 9.814a4.519 4.519 0 001.147-3.133c0-1.203-.402-2.24-1.187-3.112-.785-.871-1.751-1.307-2.918-1.307-1.168 0-2.134.456-2.919 1.328a4.518 4.518 0 00-1.147 3.133c0 1.203.403 2.24 1.188 3.112.785.871 1.75 1.307 2.918 1.307 1.187 0 2.153-.456 2.918-1.328zm25.318-9.917c1.751 1.764 2.636 3.984 2.657 6.66.02 2.677-.846 4.918-2.596 6.702-1.751 1.784-3.925 2.676-6.541 2.697-2.617.02-4.81-.871-6.561-2.635-1.771-1.763-2.657-3.983-2.677-6.68-.02-2.677.845-4.918 2.596-6.702C56.311 1.15 58.485.258 61.101.237c2.636 0 4.81.892 6.581 2.656zm-3.602 9.814a4.518 4.518 0 001.147-3.133c0-1.203-.403-2.24-1.188-3.112-.785-.872-1.75-1.307-2.918-1.307-1.167 0-2.133.456-2.918 1.328a4.518 4.518 0 00-1.147 3.133c0 1.203.402 2.24 1.187 3.112.785.871 1.751 1.307 2.918 1.307 1.168-.02 2.154-.457 2.919-1.328zM89.639.693l-6.058 17.595-4.89.02L72.492.777l5.273-.02 3.3 10.934h.061l3.2-10.976 5.313-.02zm20.065 8.881c0 .498-.04.975-.121 1.39l-12.78.062c.142 1.017.605 1.826 1.35 2.407.744.602 1.63.892 2.656.892 1.227 0 2.254-.56 3.099-1.66l5.213-.02c-.745 1.826-1.852 3.299-3.321 4.42a7.954 7.954 0 01-4.971 1.7c-2.496.021-4.629-.892-6.4-2.697-1.771-1.805-2.657-4.004-2.677-6.577-.02-2.573.846-4.793 2.576-6.66C96.06.964 98.172.03 100.648.009c2.576-.02 4.729.913 6.44 2.76 1.731 1.867 2.596 4.129 2.616 6.805zm-5.112-2.116c-.201-.934-.664-1.66-1.388-2.2a3.914 3.914 0 00-2.496-.788c-.946 0-1.771.27-2.475.83-.725.54-1.168 1.286-1.369 2.2l7.728-.042z" fill="#B5B7B7"/></svg><svg fill="none" viewBox="0 0 29 26" id="css--reliability" xmlns="http://www.w3.org/2000/svg"><path d="M14.5.021C6.483.021 0 6.52 0 14.525A14.41 14.41 0 004.249 24.78a.846.846 0 001.201 0l2.574-2.574a.85.85 0 000-1.202 9.114 9.114 0 01-2.685-6.478c0-5.097 4.138-9.163 9.161-9.163 5.092 0 9.16 4.135 9.16 9.163a9.097 9.097 0 01-1.971 5.678c-1.31-2.031-4.233-6.497-5.301-7.566a2.669 2.669 0 10-3.776 3.776c1.277 1.278 7.405 5.205 8.431 5.86l2.506 2.506a.847.847 0 001.202 0A14.41 14.41 0 0029 14.525C29 6.505 22.502.021 14.5.021zm-8.255 21.56l-1.376 1.376a12.694 12.694 0 01-3.142-7.582h1.946a10.774 10.774 0 002.572 6.206zm-2.572-7.906H1.727a12.693 12.693 0 013.142-7.582L6.245 7.47a10.765 10.765 0 00-2.572 6.206zm9.977-9.98a10.759 10.759 0 00-6.204 2.572L6.071 4.891a12.687 12.687 0 017.58-3.143v1.947zm.164 11.516a.97.97 0 011.372-1.372c.61.61 2.12 2.8 3.488 4.862-2.06-1.37-4.25-2.88-4.86-3.49zM15.35 3.695V1.748a12.686 12.686 0 017.58 3.144l-1.376 1.375a10.758 10.758 0 00-6.204-2.572zm7.406 3.774l1.375-1.376a12.693 12.693 0 013.142 7.582h-1.946a10.765 10.765 0 00-2.572-6.206zm1.375 15.488l-1.375-1.376a10.775 10.775 0 002.571-6.206h1.946a12.693 12.693 0 01-3.142 7.582z" fill="#fff"/></svg><svg fill="none" viewBox="0 0 26 33" id="css--safety" xmlns="http://www.w3.org/2000/svg"><path d="M12.923 32.009a1.12 1.12 0 01-.471-.102C5.639 28.827 0 25.501 0 16.004V5.001c0-.421.283-.796.709-.94l11.846-4c.238-.081.498-.081.736 0l11.846 4c.426.144.71.519.71.94v11.003c0 9.497-5.64 12.822-12.453 15.903-.148.069-.31.102-.47.102zM2.153 5.7v10.303c0 7.462 3.627 10.597 10.77 13.889 7.143-3.292 10.77-6.427 10.77-13.889V5.701l-10.77-3.636L2.153 5.7z" fill="#fff"/><path d="M10.46 18.479l-3.302-3.067-1.436 1.333 4.738 4.401 9.687-8.997-1.436-1.334-8.25 7.664z" fill="#fff"/></svg><svg fill="none" viewBox="0 0 36 34" id="css--scalability" xmlns="http://www.w3.org/2000/svg"><path d="M18.274 29.466c.435 0 .775-.376.775-.825 0-.45-.34-.826-.775-.826-.434 0-.774.377-.774.826 0 .449.34.825.774.825zm12.551-8.708c.435 0 .775-.377.775-.826 0-.449-.34-.825-.775-.825-.434 0-.775.376-.775.825 0 .45.34.826.775.826zm-25.101 0c.434 0 .774-.377.774-.826 0-.449-.34-.825-.774-.825-.435 0-.775.376-.775.825 0 .45.34.826.775.826z" fill="#fff" stroke="#fff" stroke-width=".2"/><path d="M26.662 21.836h0a.823.823 0 00-.335.52h0a.87.87 0 00.105.617h0a.762.762 0 00.653.38.741.741 0 00.423-.132h0l.315-.22c.755.852 1.822 1.386 3.004 1.386 2.294 0 4.148-2.006 4.148-4.455 0-2.45-1.854-4.455-4.148-4.455-2.295 0-4.149 2.005-4.149 4.455 0 .594.11 1.16.307 1.68l-.323.224zm4.165.899c-1.427 0-2.6-1.25-2.6-2.803s1.173-2.804 2.6-2.804c1.426 0 2.599 1.251 2.599 2.804 0 1.552-1.173 2.803-2.6 2.803zm-13.132-.078h0a.755.755 0 00.58.277.755.755 0 00.578-.277h0a34.585 34.585 0 002.28-3.097c.502-.775.992-1.617 1.357-2.431.364-.812.608-1.605.608-2.278 0-2.85-2.157-5.18-4.824-5.18-2.666 0-4.823 2.33-4.823 5.18 0 .673.243 1.466.607 2.278.365.814.855 1.656 1.357 2.431a34.6 34.6 0 002.28 3.098zm2.732-4.967a30.248 30.248 0 01-2.153 3.15 30.264 30.264 0 01-2.153-3.15 12.98 12.98 0 01-.808-1.596c-.2-.491-.313-.917-.313-1.243 0-1.953 1.476-3.529 3.274-3.529 1.799 0 3.274 1.576 3.274 3.529 0 .326-.113.752-.313 1.243a12.97 12.97 0 01-.808 1.596z" fill="#fff" stroke="#fff" stroke-width=".2"/><path d="M18.274 12.674c-1.116 0-2.024.977-2.024 2.177 0 1.2.908 2.177 2.024 2.177S20.3 16.05 20.3 14.85s-.909-2.177-2.025-2.177zm0 2.903c-.372 0-.675-.326-.675-.726 0-.4.303-.726.675-.726.372 0 .675.326.675.726 0 .4-.303.726-.675.726z" fill="#fff"/><path d="M18.274 12.674c-1.116 0-2.024.977-2.024 2.177 0 1.2.908 2.177 2.024 2.177S20.3 16.05 20.3 14.85s-.909-2.177-2.025-2.177zm0 2.903c-.372 0-.675-.326-.675-.726 0-.4.303-.726.675-.726.372 0 .675.326.675.726 0 .4-.303.726-.675.726z" stroke="#fff"/><path d="M31.404 13.948h0a34.577 34.577 0 002.28-3.097c.502-.775.992-1.617 1.357-2.431.364-.812.607-1.605.607-2.278 0-2.85-2.157-5.181-4.823-5.181-2.666 0-4.823 2.331-4.823 5.18 0 .674.243 1.467.607 2.279.365.814.855 1.656 1.357 2.431a34.577 34.577 0 002.28 3.097h0a.755.755 0 00.579.277.755.755 0 00.579-.277zm-.579-11.335c1.798 0 3.274 1.576 3.274 3.529 0 .326-.113.752-.313 1.242a12.97 12.97 0 01-.808 1.596 30.28 30.28 0 01-2.153 3.15 30.265 30.265 0 01-2.153-3.15 12.956 12.956 0 01-.808-1.596c-.2-.49-.313-.916-.313-1.242 0-1.953 1.476-3.53 3.274-3.53z" fill="#fff" stroke="#fff" stroke-width=".2"/><path d="M32.85 6.141c0-1.2-.909-2.178-2.025-2.178-1.116 0-2.024.977-2.024 2.178 0 1.2.908 2.178 2.024 2.178s2.024-.977 2.024-2.178zm-2.7 0c0-.4.303-.726.675-.726.372 0 .675.326.675.726 0 .4-.303.726-.675.726-.372 0-.675-.326-.675-.726z" fill="#fff"/><path d="M32.85 6.141c0-1.2-.909-2.178-2.025-2.178-1.116 0-2.024.977-2.024 2.178 0 1.2.908 2.178 2.024 2.178s2.024-.977 2.024-2.178zm-2.7 0c0-.4.303-.726.675-.726.372 0 .675.326.675.726 0 .4-.303.726-.675.726-.372 0-.675-.326-.675-.726z" stroke="#fff"/><path d="M5.144 13.948h0a.755.755 0 00.58.277.755.755 0 00.578-.277h0a34.587 34.587 0 002.28-3.097c.502-.775.992-1.617 1.357-2.431.364-.812.608-1.605.608-2.278C10.547 3.292 8.39.96 5.723.96 3.057.961.9 3.292.9 6.141c0 .674.244 1.467.608 2.279.364.814.854 1.656 1.357 2.431a34.585 34.585 0 002.28 3.097zM7.877 8.98a30.26 30.26 0 01-2.154 3.15A30.261 30.261 0 013.57 8.98a12.962 12.962 0 01-.808-1.596c-.2-.49-.312-.916-.312-1.242 0-1.953 1.475-3.53 3.273-3.53 1.799 0 3.274 1.577 3.274 3.53 0 .326-.113.752-.312 1.242-.2.489-.48 1.034-.808 1.596z" fill="#fff" stroke="#fff" stroke-width=".2"/><path d="M5.724 3.963c-1.117 0-2.025.977-2.025 2.178 0 1.2.908 2.178 2.025 2.178 1.116 0 2.024-.977 2.024-2.178 0-1.2-.908-2.178-2.024-2.178zm0 2.904c-.373 0-.675-.326-.675-.726 0-.4.302-.726.675-.726.372 0 .674.326.674.726 0 .4-.302.726-.674.726z" fill="#fff"/><path d="M5.724 3.963c-1.117 0-2.025.977-2.025 2.178 0 1.2.908 2.178 2.025 2.178 1.116 0 2.024-.977 2.024-2.178 0-1.2-.908-2.178-2.024-2.178zm0 2.904c-.373 0-.675-.326-.675-.726 0-.4.302-.726.675-.726.372 0 .674.326.674.726 0 .4-.302.726-.674.726z" stroke="#fff"/><path d="M9.887 21.836h0l-.323-.224a4.716 4.716 0 00.307-1.68c0-2.45-1.854-4.455-4.149-4.455-2.294 0-4.148 2.005-4.148 4.455s1.854 4.455 4.148 4.455c1.182 0 2.249-.534 3.004-1.386l.315.22h0a.74.74 0 00.422.133h0a.762.762 0 00.654-.381h0c.227-.38.128-.888-.23-1.137zm-4.165.899c-1.426 0-2.599-1.25-2.599-2.803s1.173-2.804 2.6-2.804c1.426 0 2.598 1.251 2.598 2.804 0 1.552-1.172 2.803-2.599 2.803zm6.295 2.39c.435 0 .775-.376.775-.825 0-.45-.34-.826-.775-.826-.434 0-.774.377-.774.826 0 .449.34.825.774.825zm9.543.252h0a.74.74 0 01.421-.133c.268 0 .512.145.654.38h0c.227.38.128.89-.23 1.138 0 0 0 0 0 0l-.287.199a4.71 4.71 0 01.307 1.68c0 2.45-1.854 4.456-4.149 4.456-2.294 0-4.148-2.006-4.148-4.455 0-.595.109-1.162.307-1.681l-.287-.2h0l.057-.081c-.313-.217-.403-.667-.202-1.004l7.556-.299zm0 0l-.28.195.28-.195zm-3.284 6.068c-1.426 0-2.599-1.25-2.599-2.803s1.173-2.804 2.6-2.804c1.425 0 2.598 1.25 2.598 2.804 0 1.552-1.172 2.803-2.599 2.803zm6.256-6.32c.434 0 .774-.376.774-.825 0-.45-.34-.826-.774-.826-.435 0-.775.377-.775.826 0 .449.34.825.775.825z" fill="#fff" stroke="#fff" stroke-width=".2"/></svg><svg fill="none" viewBox="0 0 39 27" id="css--signal" xmlns="http://www.w3.org/2000/svg"><path d="M38.69 7.406C27.894-2.47 11.102-2.467.31 7.406A.95.95 0 00.29 8.79l2.086 2.047a.998.998 0 001.365.023c8.892-8.057 22.626-8.059 31.52 0a.998.998 0 001.365-.023l2.087-2.047a.951.951 0 00-.022-1.385zM19.5 19.286c-2.154 0-3.9 1.726-3.9 3.857 0 2.13 1.746 3.857 3.9 3.857s3.9-1.727 3.9-3.857-1.746-3.857-3.9-3.857zm12.35-5.038c-7.024-6.143-17.684-6.137-24.7 0a.946.946 0 00-.035 1.395l2.099 2.049c.365.356.954.38 1.343.048 5.116-4.374 12.781-4.364 17.885 0 .39.333.978.309 1.344-.048l2.098-2.049a.946.946 0 00-.034-1.395z" fill="#B5B7B7"/></svg><svg fill="none" viewBox="0 0 28 27" id="css--time" xmlns="http://www.w3.org/2000/svg"><path d="M14.554.943c-.612-.025-1.135.434-1.16 1.031h0c-.027.598.455 1.097 1.067 1.122l.004-.1L24.96 13.99l-.1-.005s0 0 0 0c-.026.598.456 1.097 1.068 1.122h.047c.592 0 1.09-.45 1.114-1.032h0c.008-.177.012-.357.012-.534 0-3.276-1.3-6.38-3.657-8.74l-.071.07.07-.07c-2.35-2.353-5.507-3.723-8.888-3.859zm0 0s0 0 0 0l-.004.1.004-.1s0 0 0 0zm5.192 23.05h0a.49.49 0 01-.36-.123h-.002l-3.233-3.038-.069.073.069-.073a1.144 1.144 0 00-1.575.02 1.051 1.051 0 00.02 1.525l3.24 3.043s0 0 0 0c0 .002.002.003.004.004l.008.007a2.774 2.774 0 002.046.712h0a2.751 2.751 0 001.932-.969h0c.014-.015.026-.031.038-.047h0l5.026-6.757a1.054 1.054 0 00-.258-1.505 1.141 1.141 0 00-1.554.248s0 0 0 0l-5.003 6.725a.484.484 0 01-.329.155zm-5.082-1.688l3.24 3.043a.155.155 0 00.005.004l.005.004-3.25-3.052zm.198 2.79h0l-1.094-1 .002-.1s0 0 0 0c-5.87-.117-10.64-4.81-10.64-10.453 0-2.522.95-4.945 2.644-6.833v1.75c0 .6.503 1.078 1.116 1.078.612 0 1.115-.479 1.115-1.077V6.212c0-1.676-1.415-3.032-3.147-3.032H2.523c-.612 0-1.115.478-1.115 1.077s.503 1.077 1.115 1.077h1.534C2.034 7.606.9 10.514.9 13.542c0 3.323 1.332 6.459 3.748 8.83l.07-.071-.07.071c2.412 2.367 5.636 3.709 9.076 3.777l.002-.1-.003.1h.024c.602 0 1.102-.464 1.115-1.055zM8.82 12.952c-.612 0-1.115.479-1.115 1.078 0 .598.503 1.077 1.115 1.077h5.688c.612 0 1.115-.479 1.115-1.077V6.21c0-.598-.503-1.077-1.115-1.077-.613 0-1.116.48-1.116 1.078v6.741H8.82z" fill="#fff" stroke="#fff" stroke-width=".2"/></svg></svg>